<?xml version="1.0" standalone="no"?>
<!DOCTYPE svg PUBLIC "-//W3C//DTD SVG 20010904//EN"
 "http://www.w3.org/TR/2001/REC-SVG-20010904/DTD/svg10.dtd">
<svg version="1.0" xmlns="http://www.w3.org/2000/svg"
 width="207.000000pt" height="207.000000pt" viewBox="0 0 207.000000 207.000000"
 preserveAspectRatio="xMidYMid meet">
<metadata>
Created by potrace 1.11, written by Peter Selinger 2001-2013
</metadata>
<g transform="translate(0.000000,207.000000) scale(0.100000,-0.100000)"
fill="#000000" stroke="none">
<path d="M0 1035 l0 -1035 1035 0 1035 0 0 1035 0 1035 -1035 0 -1035 0 0
-1035z m1760 225 l0 -40 50 0 c47 0 50 -2 50 -25 0 -23 -3 -25 -50 -25 l-50 0
0 -74 c0 -86 11 -102 65 -93 32 5 35 3 35 -18 0 -12 -7 -26 -16 -29 -34 -13
-92 -6 -118 15 -25 19 -26 25 -26 110 l0 89 -40 0 c-36 0 -40 3 -40 25 0 23 4
25 40 25 39 0 40 1 40 34 0 35 1 35 53 45 4 0 7 -17 7 -39z m-1370 -55 c18
-16 20 -30 20 -132 l0 -113 -25 0 c-17 0 -25 6 -25 17 0 15 -2 15 -19 -1 -32
-29 -91 -32 -123 -6 -30 23 -38 73 -18 111 15 28 63 49 110 49 33 0 41 3 38
16 -6 30 -33 39 -87 28 -50 -10 -51 -10 -51 13 0 32 31 44 102 40 38 -2 64 -9
78 -22z m588 15 c27 0 32 -3 32 -25 0 -14 -6 -25 -13 -25 -8 0 -13 -13 -13
-35 0 -53 -31 -79 -96 -81 -88 -3 -75 -44 14 -44 26 0 59 -5 73 -12 52 -24 44
-101 -15 -131 -46 -24 -149 -20 -179 7 -25 23 -27 63 -5 87 13 14 13 21 3 37
-10 16 -10 26 -1 47 7 15 9 42 6 65 -14 86 23 124 111 115 28 -3 65 -5 83 -5z
m556 4 c9 -3 16 -16 16 -28 0 -20 -5 -21 -57 -21 -51 0 -58 -2 -58 -20 0 -14
13 -24 49 -36 64 -24 86 -45 86 -85 0 -53 -45 -84 -120 -84 -58 0 -90 15 -90
43 0 23 2 24 44 14 55 -12 96 -3 96 22 0 13 -16 24 -60 40 -61 23 -80 42 -80
84 0 23 31 59 60 70 21 8 95 8 114 1z m-982 -111 c3 -95 5 -108 21 -111 11 -2
30 6 43 19 22 20 24 30 24 111 l0 88 35 0 35 0 0 -130 0 -130 -30 0 c-21 0
-30 5 -30 16 0 13 -5 12 -26 -5 -30 -24 -80 -27 -107 -7 -26 20 -37 70 -37
168 l0 88 35 0 34 0 3 -107z m580 0 c3 -95 5 -108 21 -111 11 -2 30 6 43 19
22 20 24 30 24 111 l0 88 35 0 35 0 0 -130 0 -130 -30 0 c-21 0 -30 5 -30 16
0 13 -5 12 -26 -5 -30 -24 -80 -27 -107 -7 -26 20 -37 70 -37 168 l0 88 35 0
34 0 3 -107z"/>
<path d="M266 1058 c-18 -25 -5 -58 22 -58 25 0 62 36 62 60 0 29 -63 28 -84
-2z"/>
<path d="M852 1168 c-19 -19 -14 -56 8 -63 45 -14 80 18 60 56 -12 21 -50 25
-68 7z"/>
<path d="M837 953 c-13 -12 -7 -41 9 -47 50 -19 118 10 93 40 -12 14 -90 20
-102 7z"/>
</g>
</svg>
